# File created by Blade
# Date/Time:  Wed Jan 21 19:19:27 2015
#---------------------------------------------------------
:version 1.10
:name HOM
:units
  mass 1.0
  length 1.000000
  angle deg
:documentation
     Acclaim Skeleton File
:root
   axis xyz
   order TX TY TZ RX RY RZ
   position 0.000000 0.000000 0.000000
   orientation 0 0 0
:bonedata
   begin
      id 1
      name RightUpLeg_dum
      direction -1.000000 0.000000 0.000000
      length 3.693983
      axis 0.0 0.0 0.0 xyz
   end
   begin
      id 2
      name LeftUpLeg_dum
      direction 1.000000 0.000000 0.000000
      length 3.693983
      axis 0.0 0.0 0.0 xyz
   end
   begin
      id 3
      name Spine_dum
      direction 0.000000 1.000000 0.000000
      length 2.392956
      axis 0.0 0.0 0.0 xyz
   end
   begin
      id 4
      name RightUpLeg
      direction 0.000000 -1.000000 0.000000
      length 15.795667
      axis 0.0 0.0 0.0 xyz
      dof rx ry rz
   end
   begin
      id 5
      name RightLeg
      direction 0.000000 -1.000000 0.000000
      length 14.766989
      axis 0.0 0.0 0.0 xyz
      dof rx ry rz
   end
   begin
      id 6
      name RightFoot
      direction 0.000000 -0.258819 0.965926
      length 4.962790
      axis 15.0 0.0 0.0 xyz
      dof rx ry rz
   end
   begin
      id 7
      name RightToeBase
      direction 0.000000 0.000000 1.000000
      length 2.952750
      axis 0.0 0.0 0.0 xyz
      dof rx ry rz
   end
   begin
      id 8
      name LeftUpLeg
      direction 0.000000 -1.000000 0.000000
      length 15.795667
      axis 0.0 0.0 0.0 xyz
      dof rx ry rz
   end
   begin
      id 9
      name LeftLeg
      direction 0.000000 -1.000000 0.000000
      length 14.766989
      axis 0.0 0.0 0.0 xyz
      dof rx ry rz
   end
   begin
      id 10
      name LeftFoot
      direction 0.000000 -0.258819 0.965926
      length 4.962790
      axis 15.0 0.0 0.0 xyz
      dof rx ry rz
   end
   begin
      id 11
      name LeftToeBase
      direction 0.000000 0.000000 1.000000
      length 2.952750
      axis 0.0 0.0 0.0 xyz
      dof rx ry rz
   end
   begin
      id 12
      name Spine
      direction 0.000000 1.000000 0.000000
      length 0.000000
      axis 0.0 0.0 0.0 xyz
      dof rx ry rz
   end
   begin
      id 13
      name Spine_dum1
      direction 0.000000 1.000000 0.000000
      length 13.207411
      axis 0.0 0.0 0.0 xyz
   end
   begin
      id 14
      name Spine_dum2
      direction 0.000000 1.000000 0.000000
      length 13.207411
      axis 0.0 0.0 0.0 xyz
   end
   begin
      id 15
      name Spine_dum3
      direction 0.000000 1.000000 0.000000
      length 19.250100
      axis 0.0 0.0 0.0 xyz
   end
   begin
      id 16
      name RightShoulder
      direction -1.000000 0.000000 0.000000
      length 8.140465
      axis 0.0 0.0 90.0 xyz
      dof rx ry rz
   end
   begin
      id 17
      name RightArm
      direction -1.000000 0.000000 0.000000
      length 10.649840
      axis 0.0 0.0 90.0 xyz
      dof rx ry rz
   end
   begin
      id 18
      name RightForeArm
      direction -1.000000 0.000000 0.000000
      length 8.304624
      axis 0.0 0.0 90.0 xyz
      dof ry rz rx
   end
   begin
      id 19
      name RightHand
      direction -1.000000 0.000000 0.000000
      length 0.000000
      axis 0.0 0.0 90.0 xyz
      dof rx ry rz
   end
   begin
      id 20
      name RightHand_dum1
      direction -1.000000 0.000000 0.000000
      length 3.937000
      axis 0.0 0.0 90.0 xyz
   end
   begin
      id 21
      name RightHand_dum2
      direction 0.000000 0.000000 0.000000
      length 0.000000
      axis 0.0 0.0 90.0 xyz
   end
   begin
      id 22
      name RightHandThumb1
      direction 0.000000 0.000000 1.000000
      length 3.937000
      axis 0.0 0.0 90.0 xyz
      dof rx rz ry
   end
   begin
      id 23
      name LeftShoulder
      direction 1.000000 0.000000 0.000000
      length 8.140465
      axis 0.0 0.0 -90.0 xyz
      dof rx ry rz
   end
   begin
      id 24
      name LeftArm
      direction 1.000000 0.000000 0.000000
      length 10.649840
      axis 0.0 0.0 -90.0 xyz
      dof rx ry rz
   end
   begin
      id 25
      name LeftForeArm
      direction 1.000000 0.000000 0.000000
      length 8.304624
      axis 0.0 0.0 -90.0 xyz
      dof ry rz rx
   end
   begin
      id 26
      name LeftHand
      direction 1.000000 0.000000 0.000000
      length 0.000000
      axis 0.0 0.0 -90.0 xyz
      dof rx ry rz
   end
   begin
      id 27
      name LeftHand_dum1
      direction 1.000000 0.000000 0.000000
      length 3.937000
      axis 0.0 0.0 -90.0 xyz
   end
   begin
      id 28
      name LeftHand_dum2
      direction 0.000000 0.000000 0.000000
      length 0.000000
      axis 0.0 0.0 -90.0 xyz
   end
   begin
      id 29
      name LeftHandThumb1
      direction 0.000000 0.000000 1.000000
      length 3.937000
      axis 0.0 0.0 -90.0 xyz
      dof rx rz ry
   end
   begin
      id 30
      name Head
      direction 0.000000 1.000000 0.000000
      length 4.527550
      axis 0.0 0.0 0.0 xyz
      dof rx ry rz
   end
:hierarchy
   begin
      root RightUpLeg_dum LeftUpLeg_dum Spine_dum
      RightUpLeg_dum RightUpLeg
      LeftUpLeg_dum LeftUpLeg
      Spine_dum Spine
      RightUpLeg RightLeg
      RightLeg RightFoot
      RightFoot RightToeBase
      LeftUpLeg LeftLeg
      LeftLeg LeftFoot
      LeftFoot LeftToeBase
      Spine Spine_dum1 Spine_dum2 Spine_dum3
      Spine_dum1 RightShoulder
      Spine_dum2 LeftShoulder
      Spine_dum3 Head
      RightShoulder RightArm
      RightArm RightForeArm
      RightForeArm RightHand
      RightHand RightHand_dum1 RightHand_dum2
      RightHand_dum2 RightHandThumb1
      LeftShoulder LeftArm
      LeftArm LeftForeArm
      LeftForeArm LeftHand
      LeftHand LeftHand_dum1 LeftHand_dum2
      LeftHand_dum2 LeftHandThumb1
   end

# File created by Blade
# Date/Time:  Wed Jan 21 19:19:18 2015
# Frame Rate: 120.000 fps
#------------------------------------------------------
:FULLY-SPECIFIED
:DEGREES
245
root -0.978710 16.872078 -3.810713 57.152725 -33.083901 18.213832
RightUpLeg -170.796936 -36.537866 30.334244
RightLeg 94.526706 -0.000000 -0.000000
RightFoot -0.323774 32.563584 24.676606
RightToeBase 20.481243 -0.000000 -0.000000
LeftUpLeg -40.279314 42.715663 7.463159
LeftLeg 10.083513 -0.000000 -0.000000
LeftFoot -19.997629 -2.003370 -27.267336
LeftToeBase 4.772834 -0.000000 -0.000000
Spine -31.511100 20.445942 13.839234
RightShoulder -8.351604 19.113235 -22.346572
RightArm -1.279776 -24.145552 63.694834
RightForeArm 2.805525 -0.000000 11.822593
RightHand 29.530014 0.000000 -35.101369
RightHandThumb1 -24.326973 -0.000000 -32.862282
LeftShoulder -16.102592 1.420786 43.372800
LeftArm 21.496487 -28.555149 -34.353349
LeftForeArm 16.944364 -0.000000 17.687136
LeftHand -20.798447 -0.000000 16.089819
LeftHandThumb1 -26.253704 0.000000 33.147579
Head -16.742642 10.512386 -1.730741
246
root -0.985130 16.806843 -3.767077 57.086127 -33.048724 18.205742
RightUpLeg -171.049159 -36.646219 30.529664
RightLeg 94.787638 -0.000000 -0.000000
RightFoot -0.243746 32.710624 24.738054
RightToeBase 20.519300 -0.000000 -0.000000
LeftUpLeg -40.011070 42.820906 7.646236
LeftLeg 10.040916 -0.000000 -0.000000
LeftFoot -20.021711 -2.175679 -27.510152
LeftToeBase 4.739103 -0.000000 -0.000000
Spine -31.640694 20.513206 13.990503
RightShoulder -8.393278 18.955314 -22.224185
RightArm -1.601038 -23.529910 63.898467
RightForeArm 3.237451 -0.000000 12.128756
RightHand 30.312325 -0.000000 -36.334055
RightHandThumb1 -24.326973 -0.000000 -32.862282
LeftShoulder -16.137780 1.387813 43.667278
LeftArm 21.755301 -28.865803 -33.885030
LeftForeArm 16.899405 -0.000000 17.476290
LeftHand -20.838047 -0.000000 16.338980
LeftHandThumb1 -26.253704 0.000000 33.147579
Head -16.732212 10.533817 -1.313400
247
root -0.991682 16.744636 -3.722038 56.988427 -32.947983 18.177704
RightUpLeg -171.266594 -36.809238 30.784282
RightLeg 95.036246 -0.000000 -0.000000
RightFoot -0.062002 32.880875 24.988782
RightToeBase 20.748319 -0.000000 -0.000000
LeftUpLeg -39.724681 42.889382 7.902917
LeftLeg 10.026492 -0.000000 -0.000000
LeftFoot -20.104921 -2.165914 -27.352573
LeftToeBase 4.674864 -0.000000 -0.000000
Spine -31.732593 20.567512 14.225127
RightShoulder -8.416642 18.766219 -22.102633
RightArm -1.905372 -23.028845 64.112286
RightForeArm 3.496896 -0.000000 12.477015
RightHand 30.586879 -0.000000 -37.693643
RightHandThumb1 -24.326973 -0.000000 -32.862282
LeftShoulder -16.106145 1.182537 44.042668
LeftArm 21.772106 -29.059492 -33.379264
LeftForeArm 16.747667 0.000000 17.393341
LeftHand -20.808135 -0.000000 16.420638
LeftHandThumb1 -26.253704 0.000000 33.147579
Head -16.710890 10.525097 -0.914230
248
root -0.999370 16.682405 -3.680437 56.861660 -32.868997 18.188450
RightUpLeg -171.470124 -36.995916 30.962230
RightLeg 95.297280 -0.000000 -0.000000
RightFoot 0.056441 33.037991 25.165042
RightToeBase 20.903183 -0.000000 -0.000000
LeftUpLeg -39.378207 42.855574 8.192851
LeftLeg 10.002162 -0.000000 -0.000000
LeftFoot -20.264686 -2.124887 -27.365492
LeftToeBase 4.752094 -0.000000 -0.000000
Spine -31.815544 20.582346 14.389907
RightShoulder -8.439416 18.577388 -21.923607
RightArm -2.150476 -22.352397 64.244251
RightForeArm 3.471042 0.000000 12.811699
RightHand 31.068661 -0.000000 -38.610680
RightHandThumb1 -24.326973 -0.000000 -32.862282
LeftShoulder -16.205370 1.049739 44.378010
LeftArm 22.058524 -29.156664 -32.850408
LeftForeArm 16.507110 0.000000 17.172828
LeftHand -20.636623 0.000000 16.713793
LeftHandThumb1 -26.253704 0.000000 33.147579
Head -16.741326 10.530167 -0.444496
249
root -1.008411 16.620049 -3.642908 56.742978 -32.799617 18.187698
RightUpLeg -171.644418 -37.161351 31.095782
RightLeg 95.566058 -0.000000 -0.000000
RightFoot 0.080021 33.137383 25.193119
RightToeBase 20.922610 -0.000000 -0.000000
LeftUpLeg -39.012580 42.788715 8.530892
LeftLeg 10.000116 -0.000000 -0.000000
LeftFoot -20.458257 -2.054104 -27.505036
LeftToeBase 4.847958 -0.000000 -0.000000
Spine -31.888523 20.597080 14.540586
RightShoulder -8.502753 18.510283 -21.782483
RightArm -2.423881 -21.836186 64.454149
RightForeArm 3.344948 -0.000000 13.074521
RightHand 31.515131 -0.000000 -39.322022
RightHandThumb1 -24.326973 -0.000000 -32.862282
LeftShoulder -16.262476 0.889197 44.757395
LeftArm 22.290573 -29.431676 -32.379223
LeftForeArm 16.360230 -0.000000 16.983336
LeftHand -20.563819 -0.000000 16.707690
LeftHandThumb1 -26.253704 0.000000 33.147579
Head -16.789061 10.559943 0.047734
250
root -1.017917 16.558590 -3.606167 56.615275 -32.710332 18.196196
RightUpLeg -171.828735 -37.394674 31.222166
RightLeg 95.819934 -0.000000 -0.000000
RightFoot 0.293657 33.303154 25.443279
RightToeBase 21.026994 -0.000000 -0.000000
LeftUpLeg -38.661776 42.679105 8.886489
LeftLeg 10.032693 -0.000000 -0.000000
LeftFoot -20.648551 -1.900477 -27.459581
LeftToeBase 4.794773 -0.000000 -0.000000
Spine -31.982485 20.613720 14.666462
RightShoulder -8.550977 18.380521 -21.554825
RightArm -2.619941 -21.298216 64.541986
RightForeArm 2.693755 -0.000000 13.308697
RightHand 31.689049 -0.000000 -40.233854
RightHandThumb1 -24.326973 -0.000000 -32.862282
LeftShoulder -16.311975 0.678165 45.203846
LeftArm 22.507063 -29.565485 -31.910298
LeftForeArm 16.256511 -0.000000 16.832646
LeftHand -20.595119 0.000000 16.731110
LeftHandThumb1 -26.253704 0.000000 33.147579
Head -16.821642 10.524166 0.612561
251
root -1.027975 16.498729 -3.567459 56.494895 -32.580061 18.146103
RightUpLeg -171.977945 -37.589836 31.410139
RightLeg 96.108525 -0.000000 -0.000000
RightFoot 0.362954 33.396351 25.522687
RightToeBase 21.103335 -0.000000 -0.000000
LeftUpLeg -38.315875 42.647203 9.282845
LeftLeg 10.084609 -0.000000 -0.000000
LeftFoot -20.846530 -1.910946 -27.517482
LeftToeBase 4.899809 -0.000000 -0.000000
Spine -32.014228 20.644264 14.902339
RightShoulder -8.644196 18.486759 -21.424133
RightArm -2.967778 -20.903529 64.733319
RightForeArm 2.240372 -0.000000 13.556905
RightHand 31.678790 0.000000 -41.329760
RightHandThumb1 -24.326973 -0.000000 -32.862282
LeftShoulder -16.390758 0.073063 45.524232
LeftArm 22.472928 -29.168857 -30.912364
LeftForeArm 15.945857 -0.000000 16.642986
LeftHand -20.566033 0.000000 16.806927
LeftHandThumb1 -26.253704 0.000000 33.147579
Head -16.946505 10.494982 1.048085
252
root -1.038866 16.439390 -3.529169 56.354073 -32.454013 18.130822
RightUpLeg -172.133738 -37.783375 31.588754
RightLeg 96.408837 -0.000000 -0.000000
RightFoot 0.352970 33.443739 25.600668
RightToeBase 21.209364 -0.000000 -0.000000
LeftUpLeg -37.954032 42.544154 9.694361
LeftLeg 10.140396 -0.000000 -0.000000
LeftFoot -21.060746 -1.914610 -27.656560
LeftToeBase 5.050354 -0.000000 -0.000000
Spine -32.080648 20.654804 15.053074
RightShoulder -8.747619 18.518415 -21.191380
RightArm -3.143952 -20.788284 64.805896
RightForeArm 2.241490 -0.000000 13.564201
RightHand 31.944138 -0.000000 -42.237688
RightHandThumb1 -24.326973 -0.000000 -32.862282
LeftShoulder -16.508753 -0.053326 45.958452
LeftArm 22.865554 -29.293877 -30.487720
LeftForeArm 15.843430 -0.000000 16.467768
LeftHand -20.565329 0.000000 16.940099
LeftHandThumb1 -26.253704 0.000000 33.147579
Head -17.053913 10.440648 1.645633
